<svg xmlns="http://www.w3.org/2000/svg" version="1.1" xmlns:xlink="http://www.w3.org/1999/xlink" xmlns:svgjs="http://svgjs.dev/svgjs" width="1500" height="1500" viewBox="0 0 1500 1500"><rect width="1500" height="1500" fill="#142a33"></rect><g transform="matrix(0.6666666666666666,0,0,0.6666666666666666,248.7765957446809,655.9749141428572)"><svg viewBox="0 0 376 70" data-background-color="#142a33" preserveAspectRatio="xMidYMid meet" height="279" width="1500" xmlns="http://www.w3.org/2000/svg" xmlns:xlink="http://www.w3.org/1999/xlink"><g id="tight-bounds" transform="matrix(1,0,0,1,0.46023999999999887,0.38608500000000845)"><svg viewBox="0 0 375.07953 69.22813000000002" height="69.22813000000002" width="375.07953"><g><svg></svg></g><g><svg viewBox="0 0 375.07953 69.22813000000002" height="69.22813000000002" width="375.07953"><g transform="matrix(1,0,0,1,-10.22024,-91.32130000000001)"><path d="M10.22 155.879v-64.558h375.08v64.558h-122.734l0-2.222h120.512v-60.114h-370.636v60.114h120.512l0 2.222z" fill="#7bafd4" fill-rule="nonzero" stroke="none" stroke-width="1" stroke-linecap="butt" stroke-linejoin="miter" stroke-miterlimit="10" stroke-dasharray="" stroke-dashoffset="0" font-family="none" font-weight="none" font-size="none" text-anchor="none" style="mix-blend-mode: normal" data-fill-palette-color="tertiary"></path><g><path d="M144.792 148.999v0c0.16 0 0.309 0.002 0.447 0.005 0.138 0.003 0.273 0.012 0.405 0.028 0.129 0.015 0.241 0.026 0.336 0.032 0.095 0.009 0.204 0.025 0.327 0.046 0.123 0.021 0.212 0.038 0.268 0.051 0.058 0.012 0.152 0.035 0.281 0.069 0.132 0.034 0.213 0.054 0.244 0.06 0.031 0.006 0.118 0.032 0.262 0.078 0.147 0.046 0.232 0.072 0.254 0.078v0l-0.47 1.405c-1.004-0.276-1.889-0.415-2.654-0.414v0c-0.445 0-0.839 0.045-1.179 0.133-0.341 0.092-0.604 0.201-0.788 0.327-0.181 0.129-0.33 0.278-0.447 0.447-0.117 0.166-0.192 0.313-0.226 0.443-0.034 0.126-0.051 0.25-0.05 0.373v0c0 0.307 0.16 0.581 0.479 0.82 0.319 0.24 0.717 0.435 1.193 0.585 0.476 0.15 0.991 0.329 1.543 0.534 0.556 0.206 1.072 0.422 1.548 0.65 0.476 0.23 0.874 0.551 1.194 0.963 0.319 0.412 0.479 0.888 0.479 1.428v0c0 0.307-0.04 0.605-0.12 0.894-0.08 0.289-0.23 0.591-0.452 0.908-0.221 0.313-0.505 0.585-0.852 0.815-0.35 0.227-0.817 0.416-1.4 0.567-0.587 0.15-1.258 0.226-2.014 0.225v0c-1.149 0-2.41-0.281-3.782-0.843v0l0.52-1.396c0.771 0.286 1.402 0.488 1.894 0.608 0.491 0.12 0.974 0.18 1.447 0.18v0c1.827 0 2.741-0.582 2.741-1.746v0c0-0.255-0.089-0.479-0.267-0.673-0.181-0.194-0.421-0.353-0.719-0.479-0.301-0.123-0.64-0.25-1.018-0.382-0.381-0.132-0.768-0.253-1.161-0.364-0.393-0.114-0.779-0.263-1.157-0.447-0.381-0.181-0.72-0.382-1.018-0.603-0.301-0.221-0.541-0.508-0.719-0.862-0.181-0.353-0.272-0.751-0.271-1.193v0c0-0.27 0.043-0.545 0.129-0.825 0.086-0.283 0.247-0.579 0.483-0.889 0.236-0.313 0.531-0.587 0.885-0.82 0.35-0.236 0.82-0.432 1.41-0.585 0.59-0.154 1.255-0.23 1.995-0.231zM151.44 146.465v-2.124h2.184v2.124zM151.61 160.324v-11.113h1.843v11.113zM157.503 160.324v-11.113h1.294l0.406 0.945c1.431-0.78 2.735-1.17 3.911-1.171v0c0.608 0 1.138 0.095 1.59 0.286 0.448 0.194 0.797 0.435 1.046 0.723 0.246 0.289 0.442 0.651 0.589 1.088 0.147 0.439 0.241 0.858 0.281 1.257 0.04 0.396 0.06 0.849 0.06 1.36v0 6.625h-1.843v-6.75c0-1.95-0.84-2.926-2.52-2.925v0c-0.869 0-1.858 0.289-2.967 0.866v0 8.809zM170.168 155.025v0c0-0.878 0.106-1.668 0.318-2.368 0.209-0.7 0.487-1.273 0.834-1.718 0.35-0.448 0.762-0.82 1.234-1.115 0.473-0.295 0.957-0.505 1.452-0.631 0.494-0.123 1.012-0.184 1.552-0.185v0c1.063 0 2.101 0.221 3.115 0.664v0l-0.452 1.35c-0.832-0.286-1.645-0.428-2.437-0.429v0c-0.39 0-0.759 0.035-1.106 0.106-0.344 0.074-0.686 0.204-1.027 0.392-0.341 0.187-0.634 0.428-0.88 0.723-0.243 0.298-0.439 0.686-0.59 1.166-0.15 0.479-0.226 1.03-0.226 1.654v0c0 0.682 0.08 1.282 0.24 1.801 0.157 0.522 0.362 0.944 0.617 1.267 0.255 0.323 0.561 0.585 0.917 0.788 0.356 0.203 0.716 0.344 1.078 0.424 0.365 0.077 0.757 0.115 1.175 0.115v0c0.706 0 1.411-0.123 2.115-0.369v0l0.451 1.272c-1.066 0.412-2.135 0.617-3.206 0.617v0c-0.494 0-0.969-0.049-1.424-0.147-0.452-0.098-0.912-0.276-1.382-0.534-0.467-0.258-0.872-0.587-1.216-0.986-0.341-0.396-0.617-0.926-0.83-1.59-0.215-0.663-0.323-1.419-0.322-2.267zM186.772 148.999v0c0.541 0 1.026 0.065 1.456 0.194 0.43 0.132 0.788 0.299 1.073 0.502 0.286 0.203 0.531 0.467 0.737 0.792 0.206 0.326 0.364 0.64 0.475 0.945 0.107 0.304 0.19 0.67 0.249 1.096 0.061 0.427 0.1 0.799 0.115 1.115 0.015 0.313 0.023 0.685 0.023 1.115v0 0.876h-7.639c0 0.405 0.092 0.808 0.277 1.207 0.184 0.402 0.442 0.771 0.774 1.105 0.335 0.332 0.774 0.604 1.317 0.816 0.544 0.209 1.146 0.313 1.806 0.313v0c0.78 0 1.623-0.135 2.53-0.405v0l0.327 1.262c-1.207 0.412-2.393 0.617-3.557 0.617v0c-0.817 0-1.542-0.109-2.174-0.327-0.633-0.218-1.143-0.501-1.53-0.847-0.387-0.35-0.703-0.769-0.949-1.258-0.249-0.485-0.419-0.971-0.511-1.456-0.095-0.482-0.143-0.994-0.143-1.534v0c0-0.832 0.101-1.594 0.304-2.285 0.203-0.688 0.476-1.267 0.82-1.737 0.347-0.467 0.751-0.862 1.212-1.184 0.461-0.323 0.944-0.557 1.451-0.705 0.504-0.144 1.023-0.217 1.557-0.217zM186.376 150.593v0c-0.66 0-1.229 0.183-1.705 0.549-0.476 0.362-0.822 0.814-1.037 1.354-0.218 0.541-0.327 1.121-0.327 1.742v0h5.805c0-2.429-0.912-3.644-2.736-3.645zM201.326 146.802l-0.553-1.484c1.717-0.728 3.42-1.092 5.109-1.092v0c1.566 0 2.827 0.398 3.783 1.194 0.958 0.795 1.437 1.771 1.437 2.925v0c0 0.547-0.107 1.063-0.322 1.548-0.215 0.482-0.504 0.92-0.866 1.313-0.362 0.393-0.769 0.782-1.221 1.166-0.448 0.381-0.924 0.786-1.428 1.216-0.504 0.427-0.983 0.871-1.438 1.331-0.458 0.461-0.895 1.014-1.313 1.659-0.415 0.645-0.746 1.331-0.995 2.059v0h7.874v1.687h-10.201v-1.046c0.292-0.915 0.665-1.772 1.12-2.571 0.452-0.799 0.92-1.473 1.405-2.022 0.482-0.553 0.983-1.07 1.502-1.553 0.516-0.485 1.003-0.911 1.46-1.276 0.458-0.369 0.871-0.722 1.24-1.06 0.365-0.338 0.656-0.682 0.871-1.032 0.212-0.353 0.318-0.714 0.317-1.083v0c0-0.765-0.352-1.422-1.055-1.971-0.706-0.553-1.55-0.829-2.529-0.83v0c-1.075 0-2.474 0.307-4.197 0.922zM221.662 146.032c-0.359-0.123-0.719-0.184-1.078-0.184-0.362 0-0.723 0.06-1.083 0.18-0.359 0.12-0.726 0.333-1.101 0.64-0.375 0.307-0.706 0.69-0.995 1.147-0.289 0.458-0.525 1.058-0.71 1.802-0.184 0.74-0.276 1.573-0.276 2.497v0c0 0.995 0.092 1.892 0.276 2.69 0.184 0.799 0.421 1.444 0.71 1.935 0.289 0.491 0.622 0.903 1 1.235 0.381 0.329 0.752 0.559 1.115 0.691 0.362 0.132 0.728 0.198 1.096 0.198v0c0.292 0 0.588-0.048 0.889-0.143 0.298-0.092 0.607-0.236 0.926-0.433 0.319-0.194 0.616-0.467 0.889-0.82 0.273-0.353 0.519-0.766 0.738-1.239 0.218-0.47 0.39-1.05 0.516-1.742 0.129-0.691 0.194-1.453 0.193-2.285v0c0-0.937-0.092-1.781-0.276-2.534-0.184-0.756-0.421-1.365-0.71-1.829-0.289-0.464-0.624-0.849-1.004-1.156-0.384-0.31-0.756-0.527-1.115-0.65zM220.584 144.125v0c0.525 0 1.047 0.075 1.566 0.226 0.522 0.15 1.061 0.419 1.617 0.806 0.553 0.384 1.038 0.869 1.456 1.456 0.415 0.584 0.757 1.355 1.028 2.313 0.27 0.955 0.405 2.033 0.405 3.234v0c0 1.259-0.134 2.386-0.401 3.381-0.264 0.998-0.605 1.803-1.023 2.415-0.415 0.611-0.898 1.12-1.451 1.525-0.55 0.405-1.084 0.685-1.603 0.838-0.516 0.154-1.037 0.23-1.562 0.23v0c-0.369 0-0.739-0.04-1.11-0.119-0.369-0.077-0.756-0.212-1.161-0.406-0.405-0.19-0.788-0.43-1.147-0.718-0.359-0.289-0.705-0.657-1.037-1.106-0.329-0.452-0.611-0.96-0.848-1.525-0.236-0.568-0.425-1.239-0.566-2.014-0.144-0.777-0.217-1.619-0.217-2.524v0c0-0.863 0.069-1.666 0.207-2.41 0.138-0.743 0.329-1.382 0.572-1.916 0.24-0.537 0.522-1.02 0.847-1.447 0.326-0.427 0.668-0.777 1.028-1.05 0.362-0.273 0.743-0.502 1.142-0.687 0.402-0.184 0.789-0.313 1.161-0.387 0.369-0.077 0.734-0.115 1.097-0.115zM230.572 146.802l-0.553-1.484c1.717-0.728 3.418-1.092 5.105-1.092v0c1.569 0 2.832 0.398 3.787 1.194 0.955 0.795 1.433 1.771 1.433 2.925v0c0 0.547-0.106 1.063-0.318 1.548-0.215 0.482-0.504 0.92-0.866 1.313-0.365 0.393-0.772 0.782-1.221 1.166-0.452 0.381-0.928 0.786-1.428 1.216-0.504 0.427-0.984 0.871-1.442 1.331-0.458 0.461-0.894 1.014-1.309 1.659-0.418 0.645-0.749 1.331-0.995 2.059v0h7.874v1.687h-10.205v-1.046c0.295-0.915 0.668-1.772 1.119-2.571 0.455-0.799 0.923-1.473 1.406-2.022 0.485-0.553 0.986-1.07 1.502-1.553 0.519-0.485 1.007-0.911 1.465-1.276 0.458-0.369 0.869-0.722 1.234-1.06 0.369-0.338 0.659-0.682 0.871-1.032 0.215-0.353 0.323-0.714 0.323-1.083v0c0-0.765-0.352-1.422-1.055-1.971-0.706-0.553-1.551-0.829-2.534-0.83v0c-1.072 0-2.469 0.307-4.193 0.922zM250.908 146.032c-0.362-0.123-0.723-0.184-1.083-0.184-0.359 0-0.719 0.06-1.078 0.18-0.359 0.12-0.726 0.333-1.101 0.64-0.375 0.307-0.706 0.69-0.995 1.147-0.289 0.458-0.525 1.058-0.709 1.802-0.184 0.74-0.276 1.573-0.277 2.497v0c0 0.995 0.092 1.892 0.277 2.69 0.184 0.799 0.421 1.444 0.709 1.935 0.289 0.491 0.622 0.903 1 1.235 0.378 0.329 0.749 0.559 1.115 0.691 0.362 0.132 0.728 0.198 1.096 0.198v0c0.292 0 0.587-0.048 0.885-0.143 0.301-0.092 0.611-0.236 0.93-0.433 0.319-0.194 0.616-0.467 0.89-0.82 0.273-0.353 0.519-0.766 0.737-1.239 0.215-0.47 0.387-1.05 0.516-1.742 0.126-0.691 0.189-1.453 0.189-2.285v0c0-0.937-0.091-1.781-0.272-2.534-0.184-0.756-0.421-1.365-0.71-1.829-0.289-0.464-0.625-0.849-1.009-1.156-0.381-0.31-0.751-0.527-1.11-0.65zM249.825 144.125v0c0.525 0 1.049 0.075 1.571 0.226 0.522 0.15 1.06 0.419 1.613 0.806 0.556 0.384 1.041 0.869 1.456 1.456 0.418 0.584 0.762 1.355 1.032 2.313 0.27 0.955 0.405 2.033 0.405 3.234v0c0 1.259-0.134 2.386-0.401 3.381-0.267 0.998-0.608 1.803-1.022 2.415-0.418 0.611-0.901 1.12-1.452 1.525-0.553 0.405-1.087 0.685-1.603 0.838-0.516 0.154-1.037 0.23-1.562 0.23v0c-0.369 0-0.739-0.04-1.11-0.119-0.372-0.077-0.76-0.212-1.166-0.406-0.402-0.19-0.785-0.43-1.147-0.718-0.359-0.289-0.703-0.657-1.032-1.106-0.332-0.452-0.616-0.96-0.852-1.525-0.233-0.568-0.422-1.239-0.567-2.014-0.141-0.777-0.212-1.619-0.212-2.524v0c0-0.863 0.069-1.666 0.208-2.41 0.138-0.743 0.327-1.382 0.566-1.916 0.24-0.537 0.524-1.02 0.853-1.447 0.326-0.427 0.668-0.777 1.027-1.05 0.359-0.273 0.74-0.502 1.142-0.687 0.399-0.184 0.785-0.313 1.157-0.387 0.372-0.077 0.737-0.115 1.096-0.115z" fill="#7bafd4" fill-rule="nonzero" stroke="none" stroke-width="1" stroke-linecap="butt" stroke-linejoin="miter" stroke-miterlimit="10" stroke-dasharray="" stroke-dashoffset="0" font-family="none" font-weight="none" font-size="none" text-anchor="none" style="mix-blend-mode: normal" data-fill-palette-color="secondary" id="text-1"></path></g></g><g transform="matrix(1,0,0,1,29.33176499999999,22.29759419369788)"><svg viewBox="0 0 316.416 24.632941612604263" height="24.632941612604263" width="316.416"><g><svg viewBox="0 0 316.416 24.632941612604263" height="24.632941612604263" width="316.416"><g><svg viewBox="0 0 316.416 24.632941612604263" height="24.632941612604263" width="316.416"><g id="textblocktransform"><svg viewBox="0 0 316.416 24.632941612604263" height="24.632941612604263" width="316.416" id="textblock"><g><svg viewBox="0 0 316.416 24.632941612604263" height="24.632941612604263" width="316.416"><g transform="matrix(1,0,0,1,0,0)"><svg width="316.416" viewBox="4.52 -40.5 526.82 41.01" height="24.632941612604263" data-palette-color="#7bafd4"><path d="M4.52 0L4.52-28.81 11.74-28.81 11.74-26.37Q14.62-28 17.25-28.66 19.87-29.32 22.39-29.32L22.39-29.32Q25.68-29.32 28.49-28.36 31.3-27.39 33.35-25.49 35.4-23.58 36.56-20.74 37.72-17.9 37.72-14.16L37.72-14.16 37.72 0 30.52 0 30.52-12.99Q30.52-15.36 29.85-17.22 29.17-19.09 27.92-20.37 26.66-21.66 24.87-22.33 23.07-23 20.85-23L20.85-23Q19.68-23 18.44-22.75 17.21-22.51 16.03-22.06 14.84-21.61 13.75-20.94 12.65-20.26 11.74-19.41L11.74-19.41 11.74 0 4.52 0ZM44.85-14.4L44.85-14.4Q44.85-17.5 46.1-20.21 47.36-22.92 49.69-24.95 52.02-26.98 55.33-28.15 58.64-29.32 62.77-29.32L62.77-29.32Q66.89-29.32 70.2-28.15 73.51-26.98 75.84-24.95 78.17-22.92 79.43-20.21 80.69-17.5 80.69-14.4L80.69-14.4Q80.69-11.3 79.43-8.59 78.17-5.88 75.84-3.86 73.51-1.83 70.2-0.66 66.89 0.51 62.77 0.51L62.77 0.51Q58.64 0.51 55.33-0.66 52.02-1.83 49.69-3.86 47.36-5.88 46.1-8.59 44.85-11.3 44.85-14.4ZM52.44-14.4L52.44-14.4Q52.44-12.67 53.13-11.12 53.83-9.57 55.16-8.39 56.49-7.2 58.41-6.51 60.32-5.81 62.77-5.81L62.77-5.81Q65.21-5.81 67.12-6.51 69.04-7.2 70.37-8.39 71.7-9.57 72.4-11.12 73.09-12.67 73.09-14.4L73.09-14.4Q73.09-16.14 72.4-17.7 71.7-19.26 70.37-20.45 69.04-21.63 67.12-22.33 65.21-23.02 62.77-23.02L62.77-23.02Q60.32-23.02 58.41-22.33 56.49-21.63 55.16-20.45 53.83-19.26 53.13-17.7 52.44-16.14 52.44-14.4ZM92.33 0L92.33-23.39 85.37-23.39 85.37-28.81 92.33-28.81 92.33-37.77 99.56-37.77 99.56-28.81 106.51-28.81 106.51-23.39 99.56-23.39 99.56 0 92.33 0ZM111.56-14.5L111.56-14.5Q111.56-17.43 112.76-20.1 113.96-22.78 116.2-24.83 118.45-26.88 121.71-28.1 124.97-29.32 129.12-29.32L129.12-29.32Q133.24-29.32 136.55-28.09 139.86-26.86 142.17-24.71 144.47-22.56 145.71-19.65 146.94-16.75 146.94-13.43L146.94-13.43Q146.94-13.01 146.93-12.54 146.92-12.06 146.87-11.67L146.87-11.67 119.62-11.67Q120.09-10.38 121.12-9.3 122.16-8.23 123.72-7.45 125.29-6.67 127.34-6.24 129.39-5.81 131.88-5.81L131.88-5.81Q134.37-5.81 136.83-6.34 139.3-6.86 141.55-7.67L141.55-7.67 143.99-2.15Q142.57-1.49 141.12-0.99 139.67-0.49 138.09-0.16 136.52 0.17 134.79 0.34 133.07 0.51 131.17 0.51L131.17 0.51Q126.31 0.51 122.65-0.66 118.99-1.83 116.52-3.86 114.06-5.88 112.81-8.62 111.56-11.35 111.56-14.5ZM119.62-17.31L139.27-17.31Q138.88-18.51 138.07-19.54 137.25-20.58 136.03-21.35 134.81-22.12 133.2-22.56 131.58-23 129.66-23L129.66-23Q127.6-23 125.92-22.53 124.24-22.07 122.97-21.29 121.7-20.51 120.85-19.48 120.01-18.46 119.62-17.31L119.62-17.31ZM152.72-3.37L155.85-8.84Q158.78-7.08 162.29-6.25 165.81-5.42 169.5-5.42L169.5-5.42Q171.99-5.42 173.65-5.76 175.31-6.1 176.31-6.64 177.31-7.18 177.72-7.86 178.14-8.54 178.14-9.25L178.14-9.25Q178.14-10.28 177.25-11.01 176.36-11.74 174.31-11.74L174.31-11.74Q173.35-11.74 172.26-11.62 171.16-11.5 169.95-11.36 168.74-11.23 167.43-11.11 166.13-10.99 164.78-10.99L164.78-10.99Q161.86-10.99 159.79-11.62 157.73-12.26 156.44-13.35 155.14-14.45 154.56-15.95 153.97-17.46 153.97-19.19L153.97-19.19Q153.97-21.39 154.99-23.24 156.02-25.1 157.92-26.45 159.83-27.81 162.53-28.56 165.22-29.32 168.54-29.32L168.54-29.32Q170.28-29.32 172.17-29.11 174.06-28.91 175.89-28.56 177.72-28.22 179.41-27.77 181.09-27.32 182.39-26.81L182.39-26.81 180.12-21.19Q177.36-22.22 174.61-22.81 171.87-23.41 168.96-23.41L168.96-23.41Q166.93-23.41 165.53-23.11 164.13-22.8 163.25-22.3 162.37-21.8 161.97-21.15 161.56-20.51 161.56-19.8L161.56-19.8Q161.56-19.29 161.77-18.87 161.98-18.46 162.45-18.15 162.93-17.85 163.7-17.69 164.47-17.53 165.59-17.53L165.59-17.53Q166.62-17.53 167.76-17.65 168.91-17.77 170.16-17.91 171.4-18.04 172.73-18.16 174.06-18.29 175.45-18.29L175.45-18.29Q178.04-18.29 179.98-17.68 181.92-17.07 183.19-15.97 184.46-14.87 185.1-13.38 185.73-11.89 185.73-10.13L185.73-10.13Q185.73-7.86 184.68-5.91 183.63-3.96 181.56-2.53 179.48-1.1 176.39-0.29 173.31 0.51 169.25 0.51L169.25 0.51Q166.76 0.51 164.44 0.21 162.12-0.1 160.02-0.62 157.92-1.15 156.08-1.86 154.24-2.56 152.72-3.37L152.72-3.37ZM207.46-9.08L207.46-9.08Q207.46-11.16 208.36-12.87 209.26-14.58 211.07-15.81 212.88-17.04 215.57-17.71 218.27-18.38 221.86-18.38L221.86-18.38Q224.52-18.38 227.46-17.99 230.4-17.6 233.53-16.8L233.53-16.8Q233.41-18.16 232.7-19.32 231.99-20.48 230.73-21.33 229.48-22.17 227.71-22.63 225.94-23.1 223.69-23.1L223.69-23.1Q222.47-23.1 221.01-22.95 219.54-22.8 217.98-22.51 216.42-22.22 214.89-21.78 213.36-21.34 212.05-20.73L212.05-20.73 209.85-26.66Q211.48-27.25 213.35-27.73 215.22-28.22 217.17-28.58 219.13-28.93 221.08-29.13 223.03-29.32 224.86-29.32L224.86-29.32Q232.94-29.32 236.87-25.2 240.81-21.07 240.81-12.55L240.81-12.55 240.81 0 233.58 0 233.58-2.71Q232.46-2.05 231.13-1.46 229.79-0.88 228.23-0.44 226.67 0 224.88 0.26 223.08 0.51 221.08 0.51L221.08 0.51Q217.71 0.51 215.16-0.22 212.61-0.95 210.9-2.25 209.19-3.54 208.32-5.29 207.46-7.03 207.46-9.08ZM215.07-9.33L215.07-9.33Q215.07-8.62 215.44-7.97 215.81-7.32 216.61-6.82 217.42-6.32 218.67-6.02 219.93-5.71 221.71-5.71L221.71-5.71Q223.62-5.71 225.4-6.05 227.18-6.4 228.72-6.96 230.26-7.52 231.5-8.25 232.75-8.98 233.58-9.77L233.58-9.77 233.58-11.04Q231.92-11.5 230.3-11.82 228.67-12.13 227.19-12.32 225.72-12.5 224.41-12.57 223.11-12.65 222.13-12.65L222.13-12.65Q220.1-12.65 218.76-12.38 217.42-12.11 216.59-11.66 215.76-11.21 215.41-10.6 215.07-9.99 215.07-9.33ZM250.35 0L250.35-28.81 257.58-28.81 257.58-26.37Q260.46-28 263.08-28.66 265.71-29.32 268.22-29.32L268.22-29.32Q271.52-29.32 274.32-28.36 277.13-27.39 279.18-25.49 281.23-23.58 282.39-20.74 283.55-17.9 283.55-14.16L283.55-14.16 283.55 0 276.35 0 276.35-12.99Q276.35-15.36 275.68-17.22 275.01-19.09 273.75-20.37 272.49-21.66 270.7-22.33 268.9-23 266.68-23L266.68-23Q265.51-23 264.28-22.75 263.04-22.51 261.86-22.06 260.68-21.61 259.58-20.94 258.48-20.26 257.58-19.41L257.58-19.41 257.58 0 250.35 0ZM290.19-14.28L290.19-14.28Q290.19-17.72 291.48-20.5 292.78-23.27 295.06-25.23 297.34-27.2 300.48-28.26 303.62-29.32 307.28-29.32L307.28-29.32Q308.84-29.32 310.37-29.13 311.89-28.93 313.3-28.59 314.7-28.25 315.93-27.77 317.17-27.29 318.12-26.73L318.12-26.73 318.12-40.5 325.35-40.5 325.35 0 318.12 0 318.12-2.71Q317.17-2.05 315.87-1.46 314.58-0.88 313.09-0.44 311.6 0 310 0.26 308.4 0.51 306.84 0.51L306.84 0.51Q303.18 0.51 300.11-0.56 297.05-1.64 294.85-3.59 292.66-5.54 291.42-8.26 290.19-10.99 290.19-14.28ZM297.78-14.28L297.78-14.28Q297.78-12.55 298.48-11.01 299.17-9.47 300.48-8.31 301.79-7.15 303.63-6.48 305.47-5.81 307.77-5.81L307.77-5.81Q309.23-5.81 310.7-6.09 312.16-6.37 313.52-6.88 314.87-7.4 316.06-8.13 317.24-8.86 318.12-9.77L318.12-9.77 318.12-19.75Q317.02-20.63 315.8-21.24 314.58-21.85 313.31-22.24 312.04-22.63 310.75-22.81 309.45-23 308.23-23L308.23-23Q305.74-23 303.8-22.33 301.86-21.66 300.53-20.48 299.2-19.31 298.49-17.72 297.78-16.14 297.78-14.28ZM355.13 0L355.13-23.39 348.17-23.39 348.17-28.81 355.13-28.81 355.13-37.77 362.35-37.77 362.35-28.81 369.31-28.81 369.31-23.39 362.35-23.39 362.35 0 355.13 0ZM374-14.4L374-14.4Q374-17.5 375.25-20.21 376.51-22.92 378.84-24.95 381.17-26.98 384.48-28.15 387.79-29.32 391.92-29.32L391.92-29.32Q396.04-29.32 399.35-28.15 402.66-26.98 404.99-24.95 407.32-22.92 408.58-20.21 409.84-17.5 409.84-14.4L409.84-14.4Q409.84-11.3 408.58-8.59 407.32-5.88 404.99-3.86 402.66-1.83 399.35-0.66 396.04 0.51 391.92 0.51L391.92 0.51Q387.79 0.51 384.48-0.66 381.17-1.83 378.84-3.86 376.51-5.88 375.25-8.59 374-11.3 374-14.4ZM381.59-14.4L381.59-14.4Q381.59-12.67 382.28-11.12 382.98-9.57 384.31-8.39 385.64-7.2 387.56-6.51 389.47-5.81 391.92-5.81L391.92-5.81Q394.36-5.81 396.27-6.51 398.19-7.2 399.52-8.39 400.85-9.57 401.55-11.12 402.24-12.67 402.24-14.4L402.24-14.4Q402.24-16.14 401.55-17.7 400.85-19.26 399.52-20.45 398.19-21.63 396.27-22.33 394.36-23.02 391.92-23.02L391.92-23.02Q389.47-23.02 387.56-22.33 385.64-21.63 384.31-20.45 382.98-19.26 382.28-17.7 381.59-16.14 381.59-14.4ZM414.91-14.28L414.91-14.28Q414.91-17.72 416.21-20.5 417.5-23.27 419.78-25.23 422.06-27.2 425.2-28.26 428.34-29.32 432-29.32L432-29.32Q433.56-29.32 435.09-29.13 436.62-28.93 438.02-28.59 439.42-28.25 440.66-27.77 441.89-27.29 442.84-26.73L442.84-26.73 442.84-40.5 450.07-40.5 450.07 0 442.84 0 442.84-2.71Q441.89-2.05 440.6-1.46 439.3-0.88 437.81-0.44 436.32 0 434.72 0.26 433.12 0.51 431.56 0.51L431.56 0.51Q427.9 0.51 424.84-0.56 421.77-1.64 419.57-3.59 417.38-5.54 416.14-8.26 414.91-10.99 414.91-14.28ZM422.5-14.28L422.5-14.28Q422.5-12.55 423.2-11.01 423.9-9.47 425.2-8.31 426.51-7.15 428.35-6.48 430.19-5.81 432.49-5.81L432.49-5.81Q433.95-5.81 435.42-6.09 436.88-6.37 438.24-6.88 439.59-7.4 440.78-8.13 441.96-8.86 442.84-9.77L442.84-9.77 442.84-19.75Q441.74-20.63 440.52-21.24 439.3-21.85 438.03-22.24 436.76-22.63 435.47-22.81 434.17-23 432.95-23L432.95-23Q430.46-23 428.52-22.33 426.58-21.66 425.25-20.48 423.92-19.31 423.21-17.72 422.5-16.14 422.5-14.28ZM457.17-14.4L457.17-14.4Q457.17-17.5 458.43-20.21 459.68-22.92 462.02-24.95 464.35-26.98 467.66-28.15 470.96-29.32 475.09-29.32L475.09-29.32Q479.22-29.32 482.52-28.15 485.83-26.98 488.16-24.95 490.49-22.92 491.75-20.21 493.01-17.5 493.01-14.4L493.01-14.4Q493.01-11.3 491.75-8.59 490.49-5.88 488.16-3.86 485.83-1.83 482.52-0.66 479.22 0.51 475.09 0.51L475.09 0.51Q470.96 0.51 467.66-0.66 464.35-1.83 462.02-3.86 459.68-5.88 458.43-8.59 457.17-11.3 457.17-14.4ZM464.76-14.4L464.76-14.4Q464.76-12.67 465.46-11.12 466.15-9.57 467.48-8.39 468.82-7.2 470.73-6.51 472.65-5.81 475.09-5.81L475.09-5.81Q477.53-5.81 479.45-6.51 481.36-7.2 482.69-8.39 484.03-9.57 484.72-11.12 485.42-12.67 485.42-14.4L485.42-14.4Q485.42-16.14 484.72-17.7 484.03-19.26 482.69-20.45 481.36-21.63 479.45-22.33 477.53-23.02 475.09-23.02L475.09-23.02Q472.65-23.02 470.73-22.33 468.82-21.63 467.48-20.45 466.15-19.26 465.46-17.7 464.76-16.14 464.76-14.4ZM498.33-3.37L501.45-8.84Q504.38-7.08 507.9-6.25 511.42-5.42 515.1-5.42L515.1-5.42Q517.59-5.42 519.25-5.76 520.91-6.1 521.91-6.64 522.91-7.18 523.33-7.86 523.74-8.54 523.74-9.25L523.74-9.25Q523.74-10.28 522.85-11.01 521.96-11.74 519.91-11.74L519.91-11.74Q518.96-11.74 517.86-11.62 516.76-11.5 515.55-11.36 514.34-11.23 513.04-11.11 511.73-10.99 510.39-10.99L510.39-10.99Q507.46-10.99 505.4-11.62 503.33-12.26 502.04-13.35 500.75-14.45 500.16-15.95 499.57-17.46 499.57-19.19L499.57-19.19Q499.57-21.39 500.6-23.24 501.63-25.1 503.53-26.45 505.43-27.81 508.13-28.56 510.83-29.32 514.15-29.32L514.15-29.32Q515.88-29.32 517.78-29.11 519.67-28.91 521.5-28.56 523.33-28.22 525.01-27.77 526.7-27.32 527.99-26.81L527.99-26.81 525.72-21.19Q522.96-22.22 520.22-22.81 517.47-23.41 514.56-23.41L514.56-23.41Q512.54-23.41 511.13-23.11 509.73-22.8 508.85-22.3 507.97-21.8 507.57-21.15 507.17-20.51 507.17-19.8L507.17-19.8Q507.17-19.29 507.37-18.87 507.58-18.46 508.06-18.15 508.53-17.85 509.3-17.69 510.07-17.53 511.2-17.53L511.2-17.53Q512.22-17.53 513.37-17.65 514.52-17.77 515.76-17.91 517.01-18.04 518.34-18.16 519.67-18.29 521.06-18.29L521.06-18.29Q523.65-18.29 525.59-17.68 527.53-17.07 528.8-15.97 530.07-14.87 530.7-13.38 531.34-11.89 531.34-10.13L531.34-10.13Q531.34-7.86 530.29-5.91 529.24-3.96 527.16-2.53 525.09-1.1 522-0.29 518.91 0.51 514.86 0.51L514.86 0.51Q512.37 0.51 510.05 0.21 507.73-0.1 505.63-0.62 503.53-1.15 501.69-1.86 499.84-2.56 498.33-3.37L498.33-3.37Z" opacity="1" transform="matrix(1,0,0,1,0,0)" fill="#7bafd4" class="wordmark-text-0" data-fill-palette-color="primary" id="text-0"></path></svg></g></svg></g></svg></g></svg></g><g></g></svg></g></svg></g></svg></g><defs></defs></svg><rect width="375.07953" height="69.22813000000002" fill="none" stroke="none" visibility="hidden"></rect></g></svg></g></svg>