<svg xmlns="http://www.w3.org/2000/svg" version="1.1" xmlns:xlink="http://www.w3.org/1999/xlink" xmlns:svgjs="http://svgjs.dev/svgjs" width="1500" height="284" viewBox="0 0 1500 284"><g transform="matrix(1,0,0,1,-0.9090909090909918,-1.0587499562280698)"><svg viewBox="0 0 396 75" data-background-color="#142a33" preserveAspectRatio="xMidYMid meet" height="284" width="1500" xmlns="http://www.w3.org/2000/svg" xmlns:xlink="http://www.w3.org/1999/xlink"><g id="tight-bounds" transform="matrix(1,0,0,1,0.2400000000000091,0.2795994602714984)"><svg viewBox="0 0 395.52 74.44080107945702" height="74.44080107945702" width="395.52"><g><svg viewBox="0 0 395.52 74.44080107945702" height="74.44080107945702" width="395.52"><g><svg viewBox="0 0 395.52 74.44080107945702" height="74.44080107945702" width="395.52"><g id="textblocktransform"><svg viewBox="0 0 395.52 74.44080107945702" height="74.44080107945702" width="395.52" id="textblock"><g><rect width="102.6746757565239" height="3.636441979773394" y="60.32382081355222" fill="#7bafd4" data-fill-palette-color="tertiary"></rect><rect width="102.6746757565239" height="3.636441979773394" y="60.32382081355222" x="292.84532424347606" fill="#7bafd4" data-fill-palette-color="tertiary"></rect></g><g><svg viewBox="0 0 395.52 40.323800904977375" height="40.323800904977375" width="395.52"><g transform="matrix(1,0,0,1,0,0)"><svg width="395.52" viewBox="3.8 -35.6 353.57 36.050000000000004" height="40.323800904977375" data-palette-color="#7bafd4"><path d="M5.8 0.35L5.8 0.35Q4.8 0.35 4.3-0.2 3.8-0.75 3.8-1.75L3.8-1.75 3.8-22.6Q3.8-23.6 4.3-24.13 4.8-24.65 5.75-24.65L5.75-24.65Q6.7-24.65 7.23-24.13 7.75-23.6 7.75-22.6L7.75-22.6 7.75-18.3 7.2-18.9Q8.25-21.8 10.63-23.28 13-24.75 16.1-24.75L16.1-24.75Q19-24.75 20.93-23.7 22.85-22.65 23.8-20.53 24.75-18.4 24.75-15.15L24.75-15.15 24.75-1.75Q24.75-0.75 24.23-0.2 23.7 0.35 22.75 0.35L22.75 0.35Q21.75 0.35 21.23-0.2 20.7-0.75 20.7-1.75L20.7-1.75 20.7-14.9Q20.7-18.3 19.38-19.88 18.05-21.45 15.15-21.45L15.15-21.45Q11.8-21.45 9.83-19.38 7.85-17.3 7.85-13.85L7.85-13.85 7.85-1.75Q7.85 0.35 5.8 0.35ZM42.3 0.45L42.3 0.45Q38.75 0.45 36.15-1.1 33.55-2.65 32.12-5.48 30.7-8.3 30.7-12.15L30.7-12.15Q30.7-15.05 31.5-17.38 32.3-19.7 33.85-21.35 35.4-23 37.52-23.88 39.65-24.75 42.3-24.75L42.3-24.75Q45.85-24.75 48.45-23.2 51.05-21.65 52.47-18.82 53.9-16 53.9-12.15L53.9-12.15Q53.9-9.25 53.1-6.95 52.3-4.65 50.75-2.98 49.2-1.3 47.07-0.43 44.95 0.45 42.3 0.45ZM42.3-2.8L42.3-2.8Q44.55-2.8 46.25-3.9 47.95-5 48.87-7.1 49.8-9.2 49.8-12.15L49.8-12.15Q49.8-16.7 47.77-19.1 45.75-21.5 42.3-21.5L42.3-21.5Q40-21.5 38.32-20.43 36.65-19.35 35.72-17.28 34.8-15.2 34.8-12.15L34.8-12.15Q34.8-7.65 36.85-5.23 38.9-2.8 42.3-2.8ZM69.5 0.45L69.5 0.45Q66.65 0.45 64.72-0.58 62.8-1.6 61.85-3.58 60.9-5.55 60.9-8.4L60.9-8.4 60.9-21.15 57.55-21.15Q56.7-21.15 56.25-21.58 55.8-22 55.8-22.75L55.8-22.75Q55.8-23.5 56.25-23.9 56.7-24.3 57.55-24.3L57.55-24.3 60.9-24.3 60.9-30.05Q60.9-31.05 61.45-31.58 62-32.1 62.95-32.1L62.95-32.1Q63.9-32.1 64.42-31.58 64.95-31.05 64.95-30.05L64.95-30.05 64.95-24.3 71.25-24.3Q72.1-24.3 72.55-23.9 73-23.5 73-22.75L73-22.75Q73-22 72.55-21.58 72.1-21.15 71.25-21.15L71.25-21.15 64.95-21.15 64.95-8.8Q64.95-5.95 66.15-4.48 67.35-3 70.05-3L70.05-3Q71-3 71.67-3.2 72.35-3.4 72.8-3.4L72.8-3.4Q73.25-3.45 73.55-3.1 73.85-2.75 73.85-1.9L73.85-1.9Q73.85-1.3 73.62-0.8 73.4-0.3 72.85-0.1L72.85-0.1Q72.25 0.1 71.27 0.28 70.3 0.45 69.5 0.45ZM87.94 0.45L87.94 0.45Q84.09 0.45 81.32-1.07 78.54-2.6 77.02-5.4 75.49-8.2 75.49-12.1L75.49-12.1Q75.49-15.9 76.99-18.73 78.49-21.55 81.12-23.15 83.74-24.75 87.19-24.75L87.19-24.75Q89.64-24.75 91.59-23.93 93.54-23.1 94.92-21.55 96.29-20 97.02-17.8 97.74-15.6 97.74-12.85L97.74-12.85Q97.74-12.05 97.29-11.68 96.84-11.3 95.99-11.3L95.99-11.3 78.59-11.3 78.59-13.95 95.04-13.95 94.24-13.3Q94.24-16 93.44-17.88 92.64-19.75 91.12-20.75 89.59-21.75 87.29-21.75L87.29-21.75Q84.74-21.75 82.97-20.58 81.19-19.4 80.29-17.32 79.39-15.25 79.39-12.5L79.39-12.5 79.39-12.2Q79.39-7.6 81.62-5.2 83.84-2.8 87.94-2.8L87.94-2.8Q89.64-2.8 91.32-3.25 92.99-3.7 94.59-4.75L94.59-4.75Q95.29-5.2 95.87-5.18 96.44-5.15 96.79-4.83 97.14-4.5 97.27-4.03 97.39-3.55 97.17-3 96.94-2.45 96.29-2.05L96.29-2.05Q94.64-0.85 92.39-0.2 90.14 0.45 87.94 0.45ZM111.79 0.45L111.79 0.45Q109.54 0.45 107.27-0.1 104.99-0.65 103.04-2L103.04-2Q102.54-2.35 102.34-2.83 102.14-3.3 102.22-3.78 102.29-4.25 102.62-4.6 102.94-4.95 103.42-5.03 103.89-5.1 104.49-4.8L104.49-4.8Q106.44-3.6 108.27-3.13 110.09-2.65 111.89-2.65L111.89-2.65Q114.74-2.65 116.19-3.7 117.64-4.75 117.64-6.55L117.64-6.55Q117.64-7.95 116.69-8.78 115.74-9.6 113.69-10.05L113.69-10.05 109.14-11.05Q105.99-11.7 104.47-13.3 102.94-14.9 102.94-17.45L102.94-17.45Q102.94-19.7 104.12-21.33 105.29-22.95 107.44-23.85 109.59-24.75 112.44-24.75L112.44-24.75Q114.64-24.75 116.62-24.18 118.59-23.6 120.19-22.35L120.19-22.35Q120.69-22 120.87-21.53 121.04-21.05 120.92-20.58 120.79-20.1 120.44-19.78 120.09-19.45 119.59-19.4 119.09-19.35 118.54-19.7L118.54-19.7Q117.04-20.7 115.49-21.18 113.94-21.65 112.44-21.65L112.44-21.65Q109.64-21.65 108.19-20.55 106.74-19.45 106.74-17.65L106.74-17.65Q106.74-16.25 107.64-15.35 108.54-14.45 110.44-14.05L110.44-14.05 114.99-13.1Q118.24-12.4 119.87-10.88 121.49-9.35 121.49-6.75L121.49-6.75Q121.49-3.45 118.84-1.5 116.19 0.45 111.79 0.45ZM148.19 0.45L148.19 0.45Q145.69 0.45 143.71-0.53 141.74-1.5 140.59-3.2 139.44-4.9 139.44-7L139.44-7Q139.44-9.7 140.81-11.25 142.19-12.8 145.36-13.45 148.54-14.1 154.04-14.1L154.04-14.1 156.29-14.1 156.29-11.45 154.09-11.45Q150.04-11.45 147.71-11.08 145.39-10.7 144.46-9.8 143.54-8.9 143.54-7.25L143.54-7.25Q143.54-5.2 144.96-3.9 146.39-2.6 148.84-2.6L148.84-2.6Q150.84-2.6 152.36-3.55 153.89-4.5 154.76-6.15 155.64-7.8 155.64-9.95L155.64-9.95 155.64-15.65Q155.64-18.75 154.39-20.13 153.14-21.5 150.29-21.5L150.29-21.5Q148.54-21.5 146.79-21.05 145.04-20.6 143.09-19.6L143.09-19.6Q142.39-19.25 141.89-19.38 141.39-19.5 141.09-19.9 140.79-20.3 140.74-20.83 140.69-21.35 140.96-21.85 141.24-22.35 141.84-22.65L141.84-22.65Q144.04-23.75 146.19-24.25 148.34-24.75 150.29-24.75L150.29-24.75Q153.44-24.75 155.49-23.73 157.54-22.7 158.54-20.63 159.54-18.55 159.54-15.3L159.54-15.3 159.54-1.75Q159.54-0.75 159.06-0.2 158.59 0.35 157.69 0.35L157.69 0.35Q156.74 0.35 156.24-0.2 155.74-0.75 155.74-1.75L155.74-1.75 155.74-5.65 156.19-5.65Q155.79-3.75 154.66-2.4 153.54-1.05 151.89-0.3 150.24 0.45 148.19 0.45ZM169.03 0.35L169.03 0.35Q168.03 0.35 167.53-0.2 167.03-0.75 167.03-1.75L167.03-1.75 167.03-22.6Q167.03-23.6 167.53-24.13 168.03-24.65 168.98-24.65L168.98-24.65Q169.93-24.65 170.46-24.13 170.98-23.6 170.98-22.6L170.98-22.6 170.98-18.3 170.43-18.9Q171.48-21.8 173.86-23.28 176.23-24.75 179.33-24.75L179.33-24.75Q182.23-24.75 184.16-23.7 186.08-22.65 187.03-20.53 187.98-18.4 187.98-15.15L187.98-15.15 187.98-1.75Q187.98-0.75 187.46-0.2 186.93 0.35 185.98 0.35L185.98 0.35Q184.98 0.35 184.46-0.2 183.93-0.75 183.93-1.75L183.93-1.75 183.93-14.9Q183.93-18.3 182.61-19.88 181.28-21.45 178.38-21.45L178.38-21.45Q175.03-21.45 173.06-19.38 171.08-17.3 171.08-13.85L171.08-13.85 171.08-1.75Q171.08 0.35 169.03 0.35ZM204.68 0.45L204.68 0.45Q201.43 0.45 199.01-1.1 196.58-2.65 195.26-5.48 193.93-8.3 193.93-12.15L193.93-12.15Q193.93-16.05 195.26-18.88 196.58-21.7 199.01-23.23 201.43-24.75 204.68-24.75L204.68-24.75Q207.98-24.75 210.33-23.1 212.68-21.45 213.48-18.65L213.48-18.65 212.93-18.65 212.93-33.55Q212.93-34.55 213.46-35.08 213.98-35.6 214.98-35.6L214.98-35.6Q215.93-35.6 216.46-35.08 216.98-34.55 216.98-33.55L216.98-33.55 216.98-1.75Q216.98-0.75 216.48-0.2 215.98 0.35 214.98 0.35L214.98 0.35Q214.03 0.35 213.51-0.2 212.98-0.75 212.98-1.75L212.98-1.75 212.98-6.5 213.53-5.8Q212.73-2.95 210.36-1.25 207.98 0.45 204.68 0.45ZM205.53-2.8L205.53-2.8Q207.78-2.8 209.48-3.9 211.18-5 212.11-7.1 213.03-9.2 213.03-12.15L213.03-12.15Q213.03-16.7 211.01-19.1 208.98-21.5 205.53-21.5L205.53-21.5Q203.23-21.5 201.56-20.43 199.88-19.35 198.96-17.28 198.03-15.2 198.03-12.15L198.03-12.15Q198.03-7.65 200.08-5.23 202.13-2.8 205.53-2.8ZM247.23 0.45L247.23 0.45Q244.38 0.45 242.45-0.58 240.53-1.6 239.58-3.58 238.63-5.55 238.63-8.4L238.63-8.4 238.63-21.15 235.28-21.15Q234.43-21.15 233.98-21.58 233.53-22 233.53-22.75L233.53-22.75Q233.53-23.5 233.98-23.9 234.43-24.3 235.28-24.3L235.28-24.3 238.63-24.3 238.63-30.05Q238.63-31.05 239.18-31.58 239.73-32.1 240.68-32.1L240.68-32.1Q241.63-32.1 242.15-31.58 242.68-31.05 242.68-30.05L242.68-30.05 242.68-24.3 248.98-24.3Q249.83-24.3 250.28-23.9 250.73-23.5 250.73-22.75L250.73-22.75Q250.73-22 250.28-21.58 249.83-21.15 248.98-21.15L248.98-21.15 242.68-21.15 242.68-8.8Q242.68-5.95 243.88-4.48 245.08-3 247.78-3L247.78-3Q248.73-3 249.4-3.2 250.08-3.4 250.53-3.4L250.53-3.4Q250.98-3.45 251.28-3.1 251.58-2.75 251.58-1.9L251.58-1.9Q251.58-1.3 251.35-0.8 251.13-0.3 250.58-0.1L250.58-0.1Q249.98 0.1 249 0.28 248.03 0.45 247.23 0.45ZM264.82 0.45L264.82 0.45Q261.27 0.45 258.67-1.1 256.07-2.65 254.65-5.48 253.22-8.3 253.22-12.15L253.22-12.15Q253.22-15.05 254.02-17.38 254.82-19.7 256.37-21.35 257.92-23 260.05-23.88 262.17-24.75 264.82-24.75L264.82-24.75Q268.37-24.75 270.97-23.2 273.57-21.65 275-18.82 276.42-16 276.42-12.15L276.42-12.15Q276.42-9.25 275.62-6.95 274.82-4.65 273.27-2.98 271.72-1.3 269.6-0.43 267.47 0.45 264.82 0.45ZM264.82-2.8L264.82-2.8Q267.07-2.8 268.77-3.9 270.47-5 271.4-7.1 272.32-9.2 272.32-12.15L272.32-12.15Q272.32-16.7 270.3-19.1 268.27-21.5 264.82-21.5L264.82-21.5Q262.52-21.5 260.85-20.43 259.17-19.35 258.25-17.28 257.32-15.2 257.32-12.15L257.32-12.15Q257.32-7.65 259.37-5.23 261.42-2.8 264.82-2.8ZM291.77 0.45L291.77 0.45Q288.52 0.45 286.1-1.1 283.67-2.65 282.35-5.48 281.02-8.3 281.02-12.15L281.02-12.15Q281.02-16.05 282.35-18.88 283.67-21.7 286.1-23.23 288.52-24.75 291.77-24.75L291.77-24.75Q295.07-24.75 297.42-23.1 299.77-21.45 300.57-18.65L300.57-18.65 300.02-18.65 300.02-33.55Q300.02-34.55 300.55-35.08 301.07-35.6 302.07-35.6L302.07-35.6Q303.02-35.6 303.55-35.08 304.07-34.55 304.07-33.55L304.07-33.55 304.07-1.75Q304.07-0.75 303.57-0.2 303.07 0.35 302.07 0.35L302.07 0.35Q301.12 0.35 300.6-0.2 300.07-0.75 300.07-1.75L300.07-1.75 300.07-6.5 300.62-5.8Q299.82-2.95 297.45-1.25 295.07 0.45 291.77 0.45ZM292.62-2.8L292.62-2.8Q294.87-2.8 296.57-3.9 298.27-5 299.2-7.1 300.12-9.2 300.12-12.15L300.12-12.15Q300.12-16.7 298.1-19.1 296.07-21.5 292.62-21.5L292.62-21.5Q290.32-21.5 288.65-20.43 286.97-19.35 286.05-17.28 285.12-15.2 285.12-12.15L285.12-12.15Q285.12-7.65 287.17-5.23 289.22-2.8 292.62-2.8ZM321.77 0.45L321.77 0.45Q318.22 0.45 315.62-1.1 313.02-2.65 311.59-5.48 310.17-8.3 310.17-12.15L310.17-12.15Q310.17-15.05 310.97-17.38 311.77-19.7 313.32-21.35 314.87-23 316.99-23.88 319.12-24.75 321.77-24.75L321.77-24.75Q325.32-24.75 327.92-23.2 330.52-21.65 331.94-18.82 333.37-16 333.37-12.15L333.37-12.15Q333.37-9.25 332.57-6.95 331.77-4.65 330.22-2.98 328.67-1.3 326.54-0.43 324.42 0.45 321.77 0.45ZM321.77-2.8L321.77-2.8Q324.02-2.8 325.72-3.9 327.42-5 328.34-7.1 329.27-9.2 329.27-12.15L329.27-12.15Q329.27-16.7 327.24-19.1 325.22-21.5 321.77-21.5L321.77-21.5Q319.47-21.5 317.79-20.43 316.12-19.35 315.19-17.28 314.27-15.2 314.27-12.15L314.27-12.15Q314.27-7.65 316.32-5.23 318.37-2.8 321.77-2.8ZM347.67 0.45L347.67 0.45Q345.42 0.45 343.14-0.1 340.87-0.65 338.92-2L338.92-2Q338.42-2.35 338.22-2.83 338.02-3.3 338.09-3.78 338.17-4.25 338.49-4.6 338.81-4.95 339.29-5.03 339.77-5.1 340.37-4.8L340.37-4.8Q342.31-3.6 344.14-3.13 345.97-2.65 347.77-2.65L347.77-2.65Q350.62-2.65 352.06-3.7 353.52-4.75 353.52-6.55L353.52-6.55Q353.52-7.95 352.56-8.78 351.62-9.6 349.56-10.05L349.56-10.05 345.02-11.05Q341.87-11.7 340.34-13.3 338.81-14.9 338.81-17.45L338.81-17.45Q338.81-19.7 339.99-21.33 341.17-22.95 343.31-23.85 345.47-24.75 348.31-24.75L348.31-24.75Q350.52-24.75 352.49-24.18 354.47-23.6 356.06-22.35L356.06-22.35Q356.56-22 356.74-21.53 356.92-21.05 356.79-20.58 356.67-20.1 356.31-19.78 355.97-19.45 355.47-19.4 354.97-19.35 354.42-19.7L354.42-19.7Q352.92-20.7 351.37-21.18 349.81-21.65 348.31-21.65L348.31-21.65Q345.52-21.65 344.06-20.55 342.62-19.45 342.62-17.65L342.62-17.65Q342.62-16.25 343.52-15.35 344.42-14.45 346.31-14.05L346.31-14.05 350.87-13.1Q354.12-12.4 355.74-10.88 357.37-9.35 357.37-6.75L357.37-6.75Q357.37-3.45 354.72-1.5 352.06 0.45 347.67 0.45Z" opacity="1" transform="matrix(1,0,0,1,0,0)" fill="#7bafd4" class="wordmark-text-0" data-fill-palette-color="primary" id="text-0"></path></svg></g></svg></g><g transform="matrix(1,0,0,1,102.6746757565239,49.84328252742081)"><svg viewBox="0 0 190.1706484869522 24.5975185520362" height="24.5975185520362" width="190.1706484869522"><g transform="matrix(1,0,0,1,8,0)"><svg width="174.1706484869522" viewBox="3.17 -35.16 252.37 35.65" height="24.5975185520362" data-palette-color="#7bafd4"><path d="M14.4-24.58L14.4-24.58Q14.92-24.58 15.37-24.57 15.82-24.56 16.25-24.51 16.67-24.46 16.98-24.44 17.29-24.41 17.69-24.34 18.09-24.27 18.27-24.23 18.46-24.19 18.88-24.08 19.31-23.97 19.41-23.95 19.51-23.93 19.98-23.78 20.46-23.63 20.53-23.61L20.53-23.61 19.51-20.56Q16.24-21.46 13.75-21.46L13.75-21.46Q12.3-21.46 11.19-21.17 10.08-20.87 9.48-20.46 8.89-20.04 8.51-19.49 8.13-18.95 8.02-18.53 7.91-18.12 7.91-17.72L7.91-17.72Q7.91-16.72 8.95-15.94 9.99-15.16 11.54-14.67 13.09-14.18 14.89-13.51 16.7-12.84 18.25-12.1 19.8-11.35 20.84-10.01 21.88-8.67 21.88-6.91L21.88-6.91Q21.88-5.91 21.62-4.97 21.36-4.03 20.64-3 19.92-1.98 18.79-1.23 17.65-0.49 15.75 0 13.84 0.49 11.38 0.49L11.38 0.49Q7.64 0.49 3.17-1.34L3.17-1.34 4.3-4.37Q6.81-3.44 8.41-3.05 10.01-2.66 11.55-2.66L11.55-2.66Q17.5-2.66 17.5-6.45L17.5-6.45Q17.5-7.28 16.92-7.91 16.33-8.54 15.36-8.95 14.38-9.35 13.15-9.78 11.91-10.21 10.63-10.57 9.35-10.94 8.12-11.54 6.88-12.13 5.91-12.85 4.93-13.57 4.35-14.72 3.76-15.87 3.76-17.31L3.76-17.31Q3.76-18.19 4.04-19.1 4.32-20.02 5.09-21.03 5.86-22.05 7.01-22.81 8.15-23.58 10.07-24.08 11.99-24.58 14.4-24.58ZM28.83-30.08L28.83-34.69 33.57-34.69 33.57-30.08 28.83-30.08ZM29.2 0L29.2-24.12 33.2-24.12 33.2 0 29.2 0ZM41.99 0L41.99-24.12 44.79-24.12 45.67-22.07Q50.34-24.61 54.17-24.61L54.17-24.61Q56.15-24.61 57.61-23.99 59.08-23.36 59.88-22.42 60.69-21.48 61.16-20.06 61.64-18.63 61.77-17.33 61.91-16.04 61.91-14.38L61.91-14.38 61.91 0 57.91 0 57.91-14.65Q57.91-21 52.44-21L52.44-21Q49.6-21 45.99-19.12L45.99-19.12 45.99 0 41.99 0ZM69.47-11.5L69.47-11.5Q69.47-14.36 70.16-16.64 70.84-18.92 71.98-20.37 73.11-21.83 74.65-22.79 76.19-23.75 77.8-24.16 79.41-24.56 81.17-24.56L81.17-24.56Q84.64-24.56 87.93-23.12L87.93-23.12 86.96-20.19Q84.25-21.12 81.66-21.12L81.66-21.12Q80.39-21.12 79.26-20.89 78.14-20.65 77.03-20.04 75.92-19.43 75.13-18.47 74.33-17.5 73.85-15.94 73.36-14.38 73.36-12.35L73.36-12.35Q73.36-10.13 73.87-8.44 74.38-6.74 75.21-5.69 76.04-4.64 77.2-3.98 78.36-3.32 79.55-3.06 80.73-2.81 82.1-2.81L82.1-2.81Q84.39-2.81 86.69-3.61L86.69-3.61 87.66-0.85Q84.2 0.49 80.71 0.49L80.71 0.49Q79.09 0.49 77.62 0.17 76.14-0.15 74.61-0.99 73.09-1.83 71.98-3.13 70.87-4.42 70.17-6.58 69.47-8.74 69.47-11.5ZM105.51-24.58L105.51-24.58Q107.27-24.58 108.67-24.16 110.07-23.73 111-23.07 111.93-22.41 112.6-21.35 113.27-20.29 113.63-19.3 113.98-18.31 114.17-16.92 114.37-15.53 114.42-14.5 114.47-13.48 114.47-12.08L114.47-12.08 114.47-10.18 97.89-10.18Q97.89-8.86 98.49-7.56 99.09-6.25 100.17-5.16 101.26-4.08 103.03-3.39 104.8-2.71 106.95-2.71L106.95-2.71Q109.49-2.71 112.44-3.59L112.44-3.59 113.15-0.85Q109.22 0.49 105.43 0.49L105.43 0.49Q102.77 0.49 100.71-0.22 98.65-0.93 97.39-2.06 96.13-3.2 95.33-4.79 94.52-6.37 94.22-7.95 93.91-9.52 93.91-11.28L93.91-11.28Q93.91-13.99 94.57-16.24 95.23-18.48 96.35-20.01 97.48-21.53 98.98-22.58 100.48-23.63 102.13-24.11 103.77-24.58 105.51-24.58ZM104.65-21.12L104.65-21.12Q102.5-21.12 100.95-19.93 99.4-18.75 98.7-16.99 97.99-15.23 97.99-13.21L97.99-13.21 110.59-13.21Q110.59-21.12 104.65-21.12ZM137.09-29.35L135.9-32.57Q141.49-34.94 146.98-34.94L146.98-34.94Q152.08-34.94 155.2-32.35 158.31-29.76 158.31-26L158.31-26Q158.31-24.22 157.61-22.64 156.92-21.07 155.73-19.79 154.55-18.51 153.09-17.26 151.62-16.02 149.99-14.62 148.35-13.23 146.86-11.73 145.37-10.23 144.02-8.13 142.66-6.03 141.86-3.66L141.86-3.66 158.94-3.66 158.94 0 136.8 0 136.8-2.27Q137.75-5.25 139.23-7.85 140.71-10.45 142.28-12.24 143.86-14.04 145.54-15.61 147.23-17.19 148.72-18.38 150.2-19.58 151.4-20.68 152.6-21.78 153.29-22.92 153.99-24.07 153.99-25.27L153.99-25.27Q153.99-27.76 151.69-29.55 149.4-31.35 146.2-31.35L146.2-31.35Q142.71-31.35 137.09-29.35L137.09-29.35ZM181.23-31.02Q180.06-31.42 178.89-31.42 177.72-31.42 176.55-31.03 175.37-30.64 174.15-29.64 172.93-28.64 171.99-27.15 171.05-25.66 170.45-23.24 169.86-20.83 169.86-17.82L169.86-17.82Q169.86-14.58 170.45-11.98 171.05-9.38 171.99-7.78 172.93-6.18 174.16-5.1 175.4-4.03 176.58-3.6 177.77-3.17 178.96-3.17L178.96-3.17Q179.91-3.17 180.89-3.48 181.87-3.78 182.9-4.42 183.94-5.05 184.83-6.2 185.72-7.35 186.43-8.89 187.14-10.42 187.56-12.67 187.97-14.92 187.97-17.63L187.97-17.63Q187.97-20.68 187.37-23.13 186.77-25.59 185.83-27.1 184.89-28.61 183.65-29.61 182.4-30.62 181.23-31.02ZM178.89-35.16L178.89-35.16Q180.6-35.16 182.29-34.67 183.99-34.18 185.8-32.92 187.6-31.67 188.96-29.76 190.31-27.86 191.19-24.74 192.07-21.63 192.07-17.72L192.07-17.72Q192.07-13.62 191.21-10.38 190.34-7.13 188.98-5.14 187.63-3.15 185.83-1.83 184.04-0.51 182.36-0.01 180.67 0.49 178.96 0.49L178.96 0.49Q177.77 0.49 176.56 0.23 175.35-0.02 174.03-0.65 172.71-1.27 171.54-2.21 170.37-3.15 169.29-4.61 168.22-6.08 167.45-7.92 166.68-9.77 166.22-12.29 165.75-14.82 165.75-17.77L165.75-17.77Q165.75-20.58 166.21-23 166.66-25.42 167.44-27.16 168.22-28.91 169.28-30.3 170.34-31.69 171.52-32.58 172.69-33.47 173.99-34.07 175.3-34.67 176.51-34.91 177.72-35.16 178.89-35.16ZM200.57-29.35L199.37-32.57Q204.96-34.94 210.45-34.94L210.45-34.94Q215.56-34.94 218.67-32.35 221.78-29.76 221.78-26L221.78-26Q221.78-24.22 221.09-22.64 220.39-21.07 219.21-19.79 218.02-18.51 216.56-17.26 215.09-16.02 213.46-14.62 211.82-13.23 210.33-11.73 208.84-10.23 207.49-8.13 206.13-6.03 205.33-3.66L205.33-3.66 222.42-3.66 222.42 0 200.27 0 200.27-2.27Q201.23-5.25 202.7-7.85 204.18-10.45 205.75-12.24 207.33-14.04 209.01-15.61 210.7-17.19 212.19-18.38 213.68-19.58 214.87-20.68 216.07-21.78 216.76-22.92 217.46-24.07 217.46-25.27L217.46-25.27Q217.46-27.76 215.17-29.55 212.87-31.35 209.67-31.35L209.67-31.35Q206.18-31.35 200.57-29.35L200.57-29.35ZM244.7-31.02Q243.53-31.42 242.36-31.42 241.19-31.42 240.02-31.03 238.84-30.64 237.62-29.64 236.4-28.64 235.46-27.15 234.52-25.66 233.93-23.24 233.33-20.83 233.33-17.82L233.33-17.82Q233.33-14.58 233.93-11.98 234.52-9.38 235.46-7.78 236.4-6.18 237.64-5.1 238.87-4.03 240.05-3.6 241.24-3.17 242.43-3.17L242.43-3.17Q243.39-3.17 244.36-3.48 245.34-3.78 246.38-4.42 247.41-5.05 248.31-6.2 249.2-7.35 249.9-8.89 250.61-10.42 251.03-12.67 251.44-14.92 251.44-17.63L251.44-17.63Q251.44-20.68 250.84-23.13 250.25-25.59 249.31-27.1 248.37-28.61 247.12-29.61 245.88-30.62 244.7-31.02ZM242.36-35.16L242.36-35.16Q244.07-35.16 245.77-34.67 247.46-34.18 249.27-32.92 251.08-31.67 252.43-29.76 253.79-27.86 254.67-24.74 255.54-21.63 255.54-17.72L255.54-17.72Q255.54-13.62 254.68-10.38 253.81-7.13 252.46-5.14 251.1-3.15 249.31-1.83 247.51-0.51 245.83-0.01 244.14 0.49 242.43 0.49L242.43 0.49Q241.24 0.49 240.03 0.23 238.82-0.02 237.5-0.65 236.18-1.27 235.01-2.21 233.84-3.15 232.77-4.61 231.69-6.08 230.92-7.92 230.15-9.77 229.69-12.29 229.23-14.82 229.23-17.77L229.23-17.77Q229.23-20.58 229.68-23 230.13-25.42 230.91-27.16 231.69-28.91 232.75-30.3 233.82-31.69 234.99-32.58 236.16-33.47 237.47-34.07 238.77-34.67 239.98-34.91 241.19-35.16 242.36-35.16Z" opacity="1" transform="matrix(1,0,0,1,0,0)" fill="#7bafd4" class="slogan-text-1" data-fill-palette-color="secondary" id="text-1"></path></svg></g></svg></g></svg></g></svg></g><g></g></svg></g><defs></defs></svg><rect width="395.52" height="74.44080107945702" fill="none" stroke="none" visibility="hidden"></rect></g></svg></g></svg>